<?xml version="1.0" encoding="UTF-8" standalone="no"?>
<svg
   xmlns:dc="http://purl.org/dc/elements/1.1/"
   xmlns:cc="http://creativecommons.org/ns#"
   xmlns:rdf="http://www.w3.org/1999/02/22-rdf-syntax-ns#"
   xmlns:svg="http://www.w3.org/2000/svg"
   xmlns="http://www.w3.org/2000/svg"
   id="svg3881"
   version="1.1"
   viewBox="0 0 184.65712 40.494808"
   height="40.494808mm"
   width="184.65712mm">
  <defs
     id="defs3875" />
  <metadata
     id="metadata3878">
    <rdf:RDF>
      <cc:Work
         rdf:about="">
        <dc:format>image/svg+xml</dc:format>
        <dc:type
           rdf:resource="http://purl.org/dc/dcmitype/StillImage" />
        <dc:title></dc:title>
      </cc:Work>
    </rdf:RDF>
  </metadata>
  <g
     transform="translate(149.7538,6.2450261)"
     id="layer1">
    <text
       id="text2640"
       y="22.42382"
       x="-107.01976"
       style="font-style:normal;font-weight:normal;font-size:10.58333302px;line-height:1.25;font-family:sans-serif;letter-spacing:0px;word-spacing:0px;fill:#000000;fill-opacity:1;stroke:none;stroke-width:0.26458332"
       xml:space="preserve"><tspan
         style="font-style:normal;font-variant:normal;font-weight:normal;font-stretch:normal;font-size:22.57777786px;font-family:'Poppins Light';-inkscape-font-specification:'Poppins Light, ';fill:#ed266e;fill-opacity:1;stroke-width:0.26458332"
         y="22.42382"
         x="-107.01976"
         id="tspan2638">form-builder</tspan></text>
    <path
       id="circle2642"
       d="m -129.5064,-5.2450261 a 19.247536,19.247536 0 0 0 -19.2474,19.2474051 19.247536,19.247536 0 0 0 19.2474,19.247403 19.247536,19.247536 0 0 0 19.24741,-19.247403 19.247536,19.247536 0 0 0 -19.24741,-19.2474051 z m -8.53074,7.6501809 h 2.61844 v 0.2165218 c -0.72195,0.3281627 -1.3386,0.8927306 -1.85053,1.6934365 -0.4988,0.8007138 -0.74827,1.7980819 -0.74827,2.992583 0,0.3544147 0.0195,0.7155974 0.0589,1.083138 0.0525,0.367538 0.1051,0.7086759 0.15761,1.02371 0.13126,0.7613309 0.19689,1.3454299 0.19689,1.7523489 0,1.575167 -0.74191,2.513938 -2.22519,2.815849 v 0.03927 c 0.74821,0.144391 1.30626,0.459486 1.6738,0.945163 0.36754,0.485677 0.55139,1.109358 0.55139,1.870686 0,0.393793 -0.0656,0.970862 -0.19689,1.732196 -0.0525,0.315031 -0.10511,0.663196 -0.15761,1.043863 -0.0394,0.367541 -0.0589,0.72821 -0.0589,1.082622 0,1.194504 0.24947,2.19239 0.74827,2.993098 0.51193,0.800713 1.12858,1.365279 1.85053,1.693437 v 0.216524 h -2.61844 c -0.32816,-0.170646 -0.68284,-0.453188 -1.0635,-0.846977 -0.38067,-0.380666 -0.7218,-0.918673 -1.02371,-1.614372 -0.30191,-0.695701 -0.45269,-1.535779 -0.45269,-2.52026 0,-0.459425 0.0326,-0.899257 0.0982,-1.319299 0.0656,-0.433171 0.10521,-0.689153 0.11834,-0.767911 0.13126,-0.787585 0.19688,-1.378191 0.19688,-1.771983 0,-1.27326 -0.66977,-2.021158 -2.00866,-2.24431 v -1.024226 c 1.33889,-0.210021 2.00866,-0.957919 2.00866,-2.244307 0,-0.39379 -0.0656,-0.984917 -0.19688,-1.7725018 -0.0131,-0.078758 -0.0527,-0.3277129 -0.11834,-0.7477575 -0.0656,-0.4331732 -0.0982,-0.879512 -0.0982,-1.3389372 0,-0.9844801 0.15078,-1.8245613 0.45269,-2.5202594 0.30191,-0.695698 0.64304,-1.234223 1.02371,-1.6148896 0.38066,-0.3937926 0.73534,-0.6758173 1.0635,-0.8464577 z m 14.48232,0 h 2.57917 c 0.32816,0.1706404 0.68284,0.4526651 1.0635,0.8464577 0.38066,0.3806666 0.7218,0.9191916 1.02371,1.6148896 0.30191,0.6956981 0.45269,1.5357793 0.45269,2.5202594 0,0.4594252 -0.0326,0.905764 -0.0982,1.3389372 -0.0656,0.4200446 -0.10521,0.668999 -0.11834,0.7477575 -0.13126,0.7875848 -0.19688,1.3787118 -0.19688,1.7725018 0,0.551307 0.14426,1.043223 0.43304,1.476396 0.30191,0.420045 0.82741,0.676027 1.57562,0.767911 v 1.024226 c -0.74821,0.07876 -1.27371,0.334227 -1.57562,0.767395 -0.28878,0.433173 -0.43304,0.925605 -0.43304,1.476915 0,0.393792 0.0656,0.984398 0.19688,1.771983 0.0131,0.07876 0.0527,0.33474 0.11834,0.767911 0.0656,0.420042 0.0982,0.859874 0.0982,1.319299 0,0.984481 -0.15078,1.824559 -0.45269,2.52026 -0.30191,0.695699 -0.64305,1.233706 -1.02371,1.614372 -0.38066,0.393789 -0.73534,0.676331 -1.0635,0.846977 h -2.57917 v -0.216524 c 0.4463,-0.210021 0.86608,-0.551676 1.25987,-1.024227 0.39379,-0.459424 0.70889,-1.029984 0.94516,-1.712556 0.2494,-0.669447 0.37414,-1.398329 0.37414,-2.185914 0,-0.643194 -0.0721,-1.352026 -0.21652,-2.126485 -0.0131,-0.105011 -0.0457,-0.334436 -0.0982,-0.688848 -0.0525,-0.354412 -0.0791,-0.702575 -0.0791,-1.043863 0,-1.43078 0.73539,-2.290392 2.20555,-2.579172 v -0.03927 c -1.47016,-0.301911 -2.20555,-1.162037 -2.20555,-2.579688 0,-0.354412 0.0266,-0.70857 0.0791,-1.062984 l 0.0982,-0.6893642 c 0.14438,-0.7744565 0.21652,-1.4762638 0.21652,-2.106332 0,-0.7875852 -0.12474,-1.5164673 -0.37414,-2.1859134 -0.23627,-0.6825747 -0.55137,-1.2536513 -0.94516,-1.7130712 -0.39379,-0.4725511 -0.81357,-0.8136863 -1.25987,-1.0237126 z m -10.126,10.7502452 h 8.36848 v 2.303738 h -8.36848 z"
       style="opacity:1;fill:#ed266e;fill-opacity:1;stroke:none;stroke-width:2.20133328;stroke-miterlimit:22.9260006;stroke-dasharray:none;stroke-dashoffset:0;stroke-opacity:1" />
    <g
       transform="matrix(0.59145247,0,0,0.59145247,-167.33756,-139.96198)"
       id="g2646" />
  </g>
</svg>
