<?xml version="1.0" encoding="UTF-8" standalone="no"?>
<svg
   xmlns:dc="http://purl.org/dc/elements/1.1/"
   xmlns:cc="http://creativecommons.org/ns#"
   xmlns:rdf="http://www.w3.org/1999/02/22-rdf-syntax-ns#"
   xmlns:svg="http://www.w3.org/2000/svg"
   xmlns="http://www.w3.org/2000/svg"
   width="38.494808mm"
   height="38.494808mm"
   viewBox="0 0 38.494808 38.494808"
   version="1.1"
   id="svg3881">
  <defs
     id="defs3875" />
  <metadata
     id="metadata3878">
    <rdf:RDF>
      <cc:Work
         rdf:about="">
        <dc:format>image/svg+xml</dc:format>
        <dc:type
           rdf:resource="http://purl.org/dc/dcmitype/StillImage" />
        <dc:title></dc:title>
      </cc:Work>
    </rdf:RDF>
  </metadata>
  <path
     id="circle2642"
     d="M 19.2474,0 A 19.247536,19.247536 0 0 0 0,19.247405 19.247536,19.247536 0 0 0 19.2474,38.494808 19.247536,19.247536 0 0 0 38.49481,19.247405 19.247536,19.247536 0 0 0 19.2474,0 Z m -8.53074,7.6501809 h 2.61844 v 0.2165218 c -0.72195,0.3281627 -1.3386,0.8927306 -1.85053,1.6934363 -0.4988,0.800714 -0.74827,1.798082 -0.74827,2.992583 0,0.354415 0.0195,0.715598 0.0589,1.083138 0.0525,0.367538 0.1051,0.708676 0.15761,1.02371 0.13126,0.761331 0.19689,1.34543 0.19689,1.752349 0,1.575167 -0.74191,2.513938 -2.22519,2.815849 v 0.03927 c 0.74821,0.144391 1.30626,0.459486 1.6738,0.945163 0.36754,0.485677 0.55139,1.109358 0.55139,1.870686 0,0.393793 -0.0656,0.970862 -0.19689,1.732196 -0.0525,0.315031 -0.10511,0.663196 -0.15761,1.043863 -0.0394,0.367541 -0.0589,0.72821 -0.0589,1.082622 0,1.194504 0.24947,2.19239 0.74827,2.993098 0.51193,0.800713 1.12858,1.365279 1.85053,1.693437 v 0.216524 H 10.71666 C 10.3885,30.673981 10.03382,30.391439 9.65316,29.99765 9.27249,29.616984 8.93136,29.078977 8.62945,28.383278 8.32754,27.687577 8.17676,26.847499 8.17676,25.863018 c 0,-0.459425 0.0326,-0.899257 0.0982,-1.319299 0.0656,-0.433171 0.10521,-0.689153 0.11834,-0.767911 0.13126,-0.787585 0.19688,-1.378191 0.19688,-1.771983 0,-1.27326 -0.66977,-2.021158 -2.00866,-2.24431 v -1.024226 c 1.33889,-0.210021 2.00866,-0.957919 2.00866,-2.244307 0,-0.39379 -0.0656,-0.984917 -0.19688,-1.772502 -0.0131,-0.07876 -0.0527,-0.327713 -0.11834,-0.747757 -0.0656,-0.433173 -0.0982,-0.879512 -0.0982,-1.338937 0,-0.984481 0.15078,-1.824562 0.45269,-2.52026 C 8.93136,9.415828 9.27249,8.8773032 9.65316,8.4966366 10.03382,8.102844 10.3885,7.8208193 10.71666,7.6501789 Z m 14.48232,0 h 2.57917 c 0.32816,0.1706404 0.68284,0.4526651 1.0635,0.8464577 0.38066,0.3806666 0.7218,0.9191914 1.02371,1.6148894 0.30191,0.695698 0.45269,1.53578 0.45269,2.52026 0,0.459425 -0.0326,0.905764 -0.0982,1.338937 -0.0656,0.420044 -0.10521,0.668999 -0.11834,0.747757 -0.13126,0.787585 -0.19688,1.378712 -0.19688,1.772502 0,0.551307 0.14426,1.043223 0.43304,1.476396 0.30191,0.420045 0.82741,0.676027 1.57562,0.767911 v 1.024226 c -0.74821,0.07876 -1.27371,0.334227 -1.57562,0.767395 -0.28878,0.433173 -0.43304,0.925605 -0.43304,1.476915 0,0.393792 0.0656,0.984398 0.19688,1.771983 0.0131,0.07876 0.0527,0.33474 0.11834,0.767911 0.0656,0.420042 0.0982,0.859874 0.0982,1.319299 0,0.984481 -0.15078,1.824559 -0.45269,2.52026 -0.30191,0.695699 -0.64305,1.233706 -1.02371,1.614372 -0.38066,0.393789 -0.73534,0.676331 -1.0635,0.846977 h -2.57917 v -0.216524 c 0.4463,-0.210021 0.86608,-0.551676 1.25987,-1.024227 0.39379,-0.459424 0.70889,-1.029984 0.94516,-1.712556 0.2494,-0.669447 0.37414,-1.398329 0.37414,-2.185914 0,-0.643194 -0.0721,-1.352026 -0.21652,-2.126485 -0.0131,-0.105011 -0.0457,-0.334436 -0.0982,-0.688848 -0.0525,-0.354412 -0.0791,-0.702575 -0.0791,-1.043863 0,-1.43078 0.73539,-2.290392 2.20555,-2.579172 v -0.03927 c -1.47016,-0.301911 -2.20555,-1.162037 -2.20555,-2.579688 0,-0.354412 0.0266,-0.70857 0.0791,-1.062984 l 0.0982,-0.689364 c 0.14438,-0.774457 0.21652,-1.476264 0.21652,-2.106332 0,-0.787585 -0.12474,-1.516467 -0.37414,-2.185913 C 27.16774,9.920914 26.85264,9.349837 26.45885,8.8904173 26.06506,8.4178662 25.64528,8.076731 25.19898,7.8667047 Z m -10.126,10.7502451 h 8.36848 v 2.303738 h -8.36848 z"
     style="opacity:1;fill:#ed266e;fill-opacity:1;stroke:none;stroke-width:2.20133328;stroke-miterlimit:22.9260006;stroke-dasharray:none;stroke-dashoffset:0;stroke-opacity:1" />
  <g
     transform="matrix(0.59145247,0,0,0.59145247,-18.58376,-134.71695)"
     id="g2646" />
</svg>
